<svg xmlns="http://www.w3.org/2000/svg" width="1600" height="1100" viewBox="0 0 1600 1100">
  <defs>
    <marker id="a" viewBox="0 0 10 10" refX="9" refY="5" markerWidth="7" markerHeight="7" orient="auto"><path d="M0 0L10 5L0 10z" fill="#64748b"/></marker>
    <marker id="ap" viewBox="0 0 10 10" refX="9" refY="5" markerWidth="7" markerHeight="7" orient="auto"><path d="M0 0L10 5L0 10z" fill="#a78bfa"/></marker>
    <marker id="ag" viewBox="0 0 10 10" refX="9" refY="5" markerWidth="7" markerHeight="7" orient="auto"><path d="M0 0L10 5L0 10z" fill="#4ade80"/></marker>
    <marker id="ay" viewBox="0 0 10 10" refX="9" refY="5" markerWidth="7" markerHeight="7" orient="auto"><path d="M0 0L10 5L0 10z" fill="#fbbf24"/></marker>
  </defs>
  <rect width="1600" height="1100" rx="12" fill="#0f172a"/>
  <text x="800" y="48" text-anchor="middle" font-family="Arial,sans-serif" font-size="28" font-weight="700" fill="#e2e8f0">03  -  AI Agent Topology + RAG Pipeline</text>

  
  <rect x="620" y="80" width="360" height="60" rx="30" fill="#1e3a5f" stroke="#3b82f6" stroke-width="2"/>
  <text x="800" y="117" text-anchor="middle" font-family="Arial,sans-serif" font-size="16" font-weight="700" fill="#93c5fd">User (Web / Mobile)</text>
  <line x1="800" y1="140" x2="800" y2="180" stroke="#3b82f6" stroke-width="2" marker-end="url(#a)"/>

  
  <rect x="120" y="185" width="1360" height="250" rx="14" fill="#1a1030" stroke="#a78bfa" stroke-width="2"/>
  <text x="800" y="215" text-anchor="middle" font-family="Arial,sans-serif" font-size="20" font-weight="700" fill="#c4b5fd">Buddi Agent Layer</text>

  
  <rect x="160" y="240" width="340" height="170" rx="12" fill="#1e293b" stroke="#8b5cf6" stroke-width="2"/>
  <text x="330" y="270" text-anchor="middle" font-family="Arial,sans-serif" font-size="16" font-weight="700" fill="#c4b5fd">Planning Agent</text>
  <line x1="190" y1="284" x2="470" y2="284" stroke="#334155"/>
  <text x="330" y="306" text-anchor="middle" font-family="Arial,sans-serif" font-size="12" fill="#94a3b8">Preference gathering conversation</text>
  <text x="330" y="324" text-anchor="middle" font-family="Arial,sans-serif" font-size="12" fill="#94a3b8">Attraction recommendations</text>
  <text x="330" y="342" text-anchor="middle" font-family="Arial,sans-serif" font-size="12" fill="#94a3b8">Route + itinerary generation</text>
  <text x="330" y="360" text-anchor="middle" font-family="Arial,sans-serif" font-size="12" fill="#94a3b8">Refinement handling</text>
  <rect x="230" y="378" width="200" height="22" rx="4" fill="#4c1d95"/><text x="330" y="394" text-anchor="middle" font-family="Arial,sans-serif" font-size="11" fill="#e9d5ff">Gemini Pro</text>

  <rect x="540" y="240" width="340" height="170" rx="12" fill="#1e293b" stroke="#8b5cf6" stroke-width="2"/>
  <text x="710" y="270" text-anchor="middle" font-family="Arial,sans-serif" font-size="16" font-weight="700" fill="#c4b5fd">Companion Agent</text>
  <line x1="570" y1="284" x2="850" y2="284" stroke="#334155"/>
  <text x="710" y="306" text-anchor="middle" font-family="Arial,sans-serif" font-size="12" fill="#94a3b8">Condition-aware briefings</text>
  <text x="710" y="324" text-anchor="middle" font-family="Arial,sans-serif" font-size="12" fill="#94a3b8">Swap evaluation narratives</text>
  <text x="710" y="342" text-anchor="middle" font-family="Arial,sans-serif" font-size="12" fill="#94a3b8">Activity-specific guidance</text>
  <text x="710" y="360" text-anchor="middle" font-family="Arial,sans-serif" font-size="12" fill="#94a3b8">In-trip questions</text>
  <rect x="610" y="378" width="200" height="22" rx="4" fill="#4c1d95"/><text x="710" y="394" text-anchor="middle" font-family="Arial,sans-serif" font-size="11" fill="#e9d5ff">Gemini Pro/Flash</text>

  <rect x="920" y="240" width="340" height="170" rx="12" fill="#1e293b" stroke="#8b5cf6" stroke-width="2"/>
  <text x="1090" y="270" text-anchor="middle" font-family="Arial,sans-serif" font-size="16" font-weight="700" fill="#c4b5fd">General Chat Agent</text>
  <line x1="950" y1="284" x2="1230" y2="284" stroke="#334155"/>
  <text x="1090" y="306" text-anchor="middle" font-family="Arial,sans-serif" font-size="12" fill="#94a3b8">Ad-hoc destination questions</text>
  <text x="1090" y="324" text-anchor="middle" font-family="Arial,sans-serif" font-size="12" fill="#94a3b8">Restaurant / activity queries</text>
  <text x="1090" y="342" text-anchor="middle" font-family="Arial,sans-serif" font-size="12" fill="#94a3b8">Itinerary change requests</text>
  <text x="1090" y="360" text-anchor="middle" font-family="Arial,sans-serif" font-size="12" fill="#94a3b8">Logistics help</text>
  <rect x="990" y="378" width="200" height="22" rx="4" fill="#4c1d95"/><text x="1090" y="394" text-anchor="middle" font-family="Arial,sans-serif" font-size="11" fill="#e9d5ff">Gemini Pro</text>

  
  <rect x="1310" y="250" width="140" height="50" rx="8" fill="#422006" stroke="#fbbf24"/>
  <text x="1380" y="272" text-anchor="middle" font-family="Arial,sans-serif" font-size="12" font-weight="700" fill="#fde68a">Buddi Persona</text>
  <text x="1380" y="290" text-anchor="middle" font-family="Arial,sans-serif" font-size="10" fill="#fde68a">Warm, specific, calm</text>

  
  <line x1="330" y1="410" x2="330" y2="460" stroke="#a78bfa" stroke-width="2" marker-end="url(#ap)"/>
  <line x1="710" y1="410" x2="710" y2="460" stroke="#a78bfa" stroke-width="2" marker-end="url(#ap)"/>
  <line x1="1090" y1="410" x2="1090" y2="460" stroke="#a78bfa" stroke-width="2" marker-end="url(#ap)"/>

  <rect x="120" y="465" width="1360" height="105" rx="14" fill="#1a2e1a" stroke="#4ade80" stroke-width="2"/>
  <text x="800" y="493" text-anchor="middle" font-family="Arial,sans-serif" font-size="18" font-weight="700" fill="#86efac">Tool / Function Calling Layer</text>

  <rect x="145" y="508" width="130" height="44" rx="6" fill="#1e293b" stroke="#475569"/><text x="210" y="535" text-anchor="middle" font-family="Arial,sans-serif" font-size="11" fill="#e2e8f0">Weather API</text>
  <rect x="290" y="508" width="130" height="44" rx="6" fill="#1e293b" stroke="#475569"/><text x="355" y="535" text-anchor="middle" font-family="Arial,sans-serif" font-size="11" fill="#e2e8f0">Tides API</text>
  <rect x="435" y="508" width="130" height="44" rx="6" fill="#1e293b" stroke="#475569"/><text x="500" y="535" text-anchor="middle" font-family="Arial,sans-serif" font-size="11" fill="#e2e8f0">Solar API</text>
  <rect x="580" y="508" width="130" height="44" rx="6" fill="#1e293b" stroke="#475569"/><text x="645" y="535" text-anchor="middle" font-family="Arial,sans-serif" font-size="11" fill="#e2e8f0">Route Calc</text>
  <rect x="725" y="508" width="130" height="44" rx="6" fill="#1e293b" stroke="#475569"/><text x="790" y="535" text-anchor="middle" font-family="Arial,sans-serif" font-size="11" fill="#e2e8f0">Itinerary DB</text>
  <rect x="870" y="508" width="130" height="44" rx="6" fill="#1e293b" stroke="#475569"/><text x="935" y="535" text-anchor="middle" font-family="Arial,sans-serif" font-size="11" fill="#e2e8f0">User Profile</text>
  <rect x="1015" y="508" width="130" height="44" rx="6" fill="#1e293b" stroke="#475569"/><text x="1080" y="535" text-anchor="middle" font-family="Arial,sans-serif" font-size="11" fill="#e2e8f0">Attractions</text>
  <rect x="1160" y="508" width="130" height="44" rx="6" fill="#1e293b" stroke="#475569"/><text x="1225" y="535" text-anchor="middle" font-family="Arial,sans-serif" font-size="11" fill="#e2e8f0">Knowledge RAG</text>
  <rect x="1305" y="508" width="130" height="44" rx="6" fill="#1e293b" stroke="#475569"/><text x="1370" y="535" text-anchor="middle" font-family="Arial,sans-serif" font-size="11" fill="#e2e8f0">Aurora Kp</text>

  
  <line x1="1225" y1="552" x2="1225" y2="600" stroke="#fbbf24" stroke-width="2" marker-end="url(#ay)"/>

  <rect x="120" y="605" width="1360" height="240" rx="14" fill="#1f2415" stroke="#fbbf24" stroke-width="2"/>
  <text x="800" y="635" text-anchor="middle" font-family="Arial,sans-serif" font-size="18" font-weight="700" fill="#fde68a">RAG Knowledge Pipeline</text>

  
  <rect x="160" y="660" width="200" height="75" rx="10" fill="#1e293b" stroke="#f59e0b"/>
  <text x="260" y="688" text-anchor="middle" font-family="Arial,sans-serif" font-size="13" font-weight="700" fill="#fde68a">Knowledge Base</text>
  <text x="260" y="708" text-anchor="middle" font-family="Arial,sans-serif" font-size="11" fill="#94a3b8">Attractions, Tips,</text>
  <text x="260" y="724" text-anchor="middle" font-family="Arial,sans-serif" font-size="11" fill="#94a3b8">Stories, Areas, Transport</text>

  <line x1="360" y1="697" x2="400" y2="697" stroke="#fbbf24" stroke-width="2" marker-end="url(#ay)"/>

  <rect x="405" y="660" width="200" height="75" rx="10" fill="#1e293b" stroke="#f59e0b"/>
  <text x="505" y="688" text-anchor="middle" font-family="Arial,sans-serif" font-size="13" font-weight="700" fill="#fde68a">Embed</text>
  <text x="505" y="708" text-anchor="middle" font-family="Arial,sans-serif" font-size="11" fill="#94a3b8">text-embedding model</text>
  <text x="505" y="724" text-anchor="middle" font-family="Arial,sans-serif" font-size="11" fill="#94a3b8">chunk per knowledge item</text>

  <line x1="605" y1="697" x2="645" y2="697" stroke="#fbbf24" stroke-width="2" marker-end="url(#ay)"/>

  <rect x="650" y="660" width="200" height="75" rx="10" fill="#1e293b" stroke="#f59e0b"/>
  <text x="750" y="688" text-anchor="middle" font-family="Arial,sans-serif" font-size="13" font-weight="700" fill="#fde68a">Vector Store</text>
  <text x="750" y="708" text-anchor="middle" font-family="Arial,sans-serif" font-size="11" fill="#94a3b8">Chroma / Pinecone</text>
  <text x="750" y="724" text-anchor="middle" font-family="Arial,sans-serif" font-size="11" fill="#94a3b8">metadata filters</text>

  <line x1="850" y1="697" x2="890" y2="697" stroke="#fbbf24" stroke-width="2" marker-end="url(#ay)"/>

  <rect x="895" y="660" width="200" height="75" rx="10" fill="#1e293b" stroke="#f59e0b"/>
  <text x="995" y="688" text-anchor="middle" font-family="Arial,sans-serif" font-size="13" font-weight="700" fill="#fde68a">Retrieve top-K</text>
  <text x="995" y="708" text-anchor="middle" font-family="Arial,sans-serif" font-size="11" fill="#94a3b8">Query from context:</text>
  <text x="995" y="724" text-anchor="middle" font-family="Arial,sans-serif" font-size="11" fill="#94a3b8">activity + conditions + user</text>

  <line x1="1095" y1="697" x2="1135" y2="697" stroke="#fbbf24" stroke-width="2" marker-end="url(#ay)"/>

  <rect x="1140" y="660" width="200" height="75" rx="10" fill="#1e293b" stroke="#f59e0b"/>
  <text x="1240" y="688" text-anchor="middle" font-family="Arial,sans-serif" font-size="13" font-weight="700" fill="#fde68a">Inject into Prompt</text>
  <text x="1240" y="708" text-anchor="middle" font-family="Arial,sans-serif" font-size="11" fill="#94a3b8">Grounded context</text>
  <text x="1240" y="724" text-anchor="middle" font-family="Arial,sans-serif" font-size="11" fill="#94a3b8">-&gt; LLM generates</text>

  
  <path d="M 1240 660 L 1240 600 Q 1240 585 1225 585 L 800 460" stroke="#fbbf24" stroke-width="1.5" fill="none" stroke-dasharray="6,4" marker-end="url(#ay)"/>

  
  <rect x="120" y="870" width="1360" height="195" rx="14" fill="#2d1515" stroke="#f87171" stroke-width="2"/>
  <text x="800" y="900" text-anchor="middle" font-family="Arial,sans-serif" font-size="18" font-weight="700" fill="#fca5a5">Decision Engine  -  Scoring Domains</text>

  
  <rect x="150" y="920" width="200" height="60" rx="8" fill="#1e293b" stroke="#ef4444"/><text x="250" y="946" text-anchor="middle" font-family="Arial,sans-serif" font-size="12" font-weight="600" fill="#fca5a5">Attraction Selection</text><text x="250" y="964" text-anchor="middle" font-family="Arial,sans-serif" font-size="10" fill="#94a3b8">Interest 40% + Fit 20% + Route 20%</text>
  <rect x="370" y="920" width="200" height="60" rx="8" fill="#1e293b" stroke="#ef4444"/><text x="470" y="946" text-anchor="middle" font-family="Arial,sans-serif" font-size="12" font-weight="600" fill="#fca5a5">Location Choice</text><text x="470" y="964" text-anchor="middle" font-family="Arial,sans-serif" font-size="10" fill="#94a3b8">Quality + Proximity + Crowd</text>
  <rect x="590" y="920" width="200" height="60" rx="8" fill="#1e293b" stroke="#ef4444"/><text x="690" y="946" text-anchor="middle" font-family="Arial,sans-serif" font-size="12" font-weight="600" fill="#fca5a5">Route Optimization</text><text x="690" y="964" text-anchor="middle" font-family="Arial,sans-serif" font-size="10" fill="#94a3b8">Min drive - backtrack + scenic</text>
  <rect x="810" y="920" width="200" height="60" rx="8" fill="#1e293b" stroke="#ef4444"/><text x="910" y="946" text-anchor="middle" font-family="Arial,sans-serif" font-size="12" font-weight="600" fill="#fca5a5">Swap Evaluation</text><text x="910" y="964" text-anchor="middle" font-family="Arial,sans-serif" font-size="10" fill="#94a3b8">Improve - Impact - Disruption</text>
  <rect x="1030" y="920" width="200" height="60" rx="8" fill="#1e293b" stroke="#ef4444"/><text x="1130" y="946" text-anchor="middle" font-family="Arial,sans-serif" font-size="12" font-weight="600" fill="#fca5a5">Packing Logic</text><text x="1130" y="964" text-anchor="middle" font-family="Arial,sans-serif" font-size="10" fill="#94a3b8">Temp + Rain + UV + Activity</text>
  <rect x="1250" y="920" width="200" height="60" rx="8" fill="#1e293b" stroke="#ef4444"/><text x="1350" y="946" text-anchor="middle" font-family="Arial,sans-serif" font-size="12" font-weight="600" fill="#fca5a5">Timing Engine</text><text x="1350" y="964" text-anchor="middle" font-family="Arial,sans-serif" font-size="10" fill="#94a3b8">Crowd + Golden Hr + Tide</text>

  
  <rect x="150" y="1000" width="200" height="40" rx="6" fill="#166534"/><text x="250" y="1026" text-anchor="middle" font-family="Arial,sans-serif" font-size="12" fill="#fff">HIGH  -  0-24h data</text>
  <rect x="370" y="1000" width="200" height="40" rx="6" fill="#92400e"/><text x="470" y="1026" text-anchor="middle" font-family="Arial,sans-serif" font-size="12" fill="#fff">MEDIUM  -  1-3 day forecast</text>
  <rect x="590" y="1000" width="200" height="40" rx="6" fill="#7f1d1d"/><text x="690" y="1026" text-anchor="middle" font-family="Arial,sans-serif" font-size="12" fill="#fff">LOW  -  4+ day horizon</text>
  <text x="1050" y="1026" font-family="Arial,sans-serif" font-size="13" fill="#94a3b8">All decisions logged: inputs, scores, confidence, user response, outcome</text>
</svg>
