<svg xmlns="http://www.w3.org/2000/svg" width="1600" height="1200" viewBox="0 0 1600 1200">
  <defs>
    <marker id="a" viewBox="0 0 10 10" refX="9" refY="5" markerWidth="7" markerHeight="7" orient="auto"><path d="M0 0L10 5L0 10z" fill="#64748b"/></marker>
    <marker id="ab" viewBox="0 0 10 10" refX="9" refY="5" markerWidth="7" markerHeight="7" orient="auto"><path d="M0 0L10 5L0 10z" fill="#60a5fa"/></marker>
    <marker id="ag" viewBox="0 0 10 10" refX="9" refY="5" markerWidth="7" markerHeight="7" orient="auto"><path d="M0 0L10 5L0 10z" fill="#4ade80"/></marker>
    <marker id="ap" viewBox="0 0 10 10" refX="9" refY="5" markerWidth="7" markerHeight="7" orient="auto"><path d="M0 0L10 5L0 10z" fill="#a78bfa"/></marker>
    <marker id="ay" viewBox="0 0 10 10" refX="9" refY="5" markerWidth="7" markerHeight="7" orient="auto"><path d="M0 0L10 5L0 10z" fill="#fbbf24"/></marker>
  </defs>
  <rect width="1600" height="1200" rx="12" fill="#0f172a"/>
  <text x="800" y="48" text-anchor="middle" font-family="Arial,sans-serif" font-size="28" font-weight="700" fill="#e2e8f0">04  -  System Architecture Layers</text>

  
  <rect x="80" y="80" width="1440" height="150" rx="14" fill="#1e3a5f" stroke="#3b82f6" stroke-width="2"/>
  <text x="120" y="110" font-family="Arial,sans-serif" font-size="16" font-weight="700" fill="#93c5fd">PRESENTATION LAYER</text>
  <text x="440" y="110" font-family="Arial,sans-serif" font-size="12" fill="#60a5fa">Next.js 14  |  React 18  |  TypeScript  |  Tailwind CSS</text>

  <rect x="110" y="125" width="180" height="85" rx="8" fill="#1e293b" stroke="#3b82f6"/>
  <text x="200" y="150" text-anchor="middle" font-family="Arial,sans-serif" font-size="13" font-weight="600" fill="#93c5fd">PWA Shell</text>
  <text x="200" y="170" text-anchor="middle" font-family="Arial,sans-serif" font-size="11" fill="#94a3b8">Service Worker</text>
  <text x="200" y="186" text-anchor="middle" font-family="Arial,sans-serif" font-size="11" fill="#94a3b8">Offline Support</text>
  <text x="200" y="202" text-anchor="middle" font-family="Arial,sans-serif" font-size="11" fill="#94a3b8">Install Prompt</text>

  <rect x="310" y="125" width="180" height="85" rx="8" fill="#1e293b" stroke="#3b82f6"/>
  <text x="400" y="150" text-anchor="middle" font-family="Arial,sans-serif" font-size="13" font-weight="600" fill="#93c5fd">State Mgmt</text>
  <text x="400" y="170" text-anchor="middle" font-family="Arial,sans-serif" font-size="11" fill="#94a3b8">Zustand (client)</text>
  <text x="400" y="186" text-anchor="middle" font-family="Arial,sans-serif" font-size="11" fill="#94a3b8">React Query (server)</text>
  <text x="400" y="202" text-anchor="middle" font-family="Arial,sans-serif" font-size="11" fill="#94a3b8">JWT token store</text>

  <rect x="510" y="125" width="180" height="85" rx="8" fill="#1e293b" stroke="#3b82f6"/>
  <text x="600" y="150" text-anchor="middle" font-family="Arial,sans-serif" font-size="13" font-weight="600" fill="#93c5fd">Pages</text>
  <text x="600" y="170" text-anchor="middle" font-family="Arial,sans-serif" font-size="11" fill="#94a3b8">Landing / Auth</text>
  <text x="600" y="186" text-anchor="middle" font-family="Arial,sans-serif" font-size="11" fill="#94a3b8">Chat Interface</text>
  <text x="600" y="202" text-anchor="middle" font-family="Arial,sans-serif" font-size="11" fill="#94a3b8">Itinerary Dashboard</text>

  <rect x="710" y="125" width="180" height="85" rx="8" fill="#1e293b" stroke="#3b82f6"/>
  <text x="800" y="150" text-anchor="middle" font-family="Arial,sans-serif" font-size="13" font-weight="600" fill="#93c5fd">Components</text>
  <text x="800" y="170" text-anchor="middle" font-family="Arial,sans-serif" font-size="11" fill="#94a3b8">Chat Bubbles</text>
  <text x="800" y="186" text-anchor="middle" font-family="Arial,sans-serif" font-size="11" fill="#94a3b8">Itinerary Cards</text>
  <text x="800" y="202" text-anchor="middle" font-family="Arial,sans-serif" font-size="11" fill="#94a3b8">Condition Badges</text>

  <rect x="910" y="125" width="180" height="85" rx="8" fill="#1e293b" stroke="#3b82f6"/>
  <text x="1000" y="150" text-anchor="middle" font-family="Arial,sans-serif" font-size="13" font-weight="600" fill="#93c5fd">Map Layer</text>
  <text x="1000" y="170" text-anchor="middle" font-family="Arial,sans-serif" font-size="11" fill="#94a3b8">Mapbox GL JS</text>
  <text x="1000" y="186" text-anchor="middle" font-family="Arial,sans-serif" font-size="11" fill="#94a3b8">Route Lines</text>
  <text x="1000" y="202" text-anchor="middle" font-family="Arial,sans-serif" font-size="11" fill="#94a3b8">Activity Markers</text>

  <rect x="1110" y="125" width="180" height="85" rx="8" fill="#1e293b" stroke="#3b82f6"/>
  <text x="1200" y="150" text-anchor="middle" font-family="Arial,sans-serif" font-size="13" font-weight="600" fill="#93c5fd">Real-time</text>
  <text x="1200" y="170" text-anchor="middle" font-family="Arial,sans-serif" font-size="11" fill="#94a3b8">WebSocket client</text>
  <text x="1200" y="186" text-anchor="middle" font-family="Arial,sans-serif" font-size="11" fill="#94a3b8">Auto-reconnect</text>
  <text x="1200" y="202" text-anchor="middle" font-family="Arial,sans-serif" font-size="11" fill="#94a3b8">Streaming tokens</text>

  <rect x="1310" y="125" width="180" height="85" rx="8" fill="#1e293b" stroke="#3b82f6"/>
  <text x="1400" y="150" text-anchor="middle" font-family="Arial,sans-serif" font-size="13" font-weight="600" fill="#93c5fd">Push Notif.</text>
  <text x="1400" y="170" text-anchor="middle" font-family="Arial,sans-serif" font-size="11" fill="#94a3b8">Web Push API</text>
  <text x="1400" y="186" text-anchor="middle" font-family="Arial,sans-serif" font-size="11" fill="#94a3b8">Subscription</text>
  <text x="1400" y="202" text-anchor="middle" font-family="Arial,sans-serif" font-size="11" fill="#94a3b8">Urgency levels</text>

  
  <line x1="500" y1="230" x2="500" y2="268" stroke="#60a5fa" stroke-width="2" marker-end="url(#ab)"/>
  <text x="520" y="255" font-family="Arial,sans-serif" font-size="11" fill="#60a5fa">REST</text>
  <line x1="1100" y1="230" x2="1100" y2="268" stroke="#60a5fa" stroke-width="2" marker-end="url(#ab)"/>
  <text x="1120" y="255" font-family="Arial,sans-serif" font-size="11" fill="#60a5fa">WS</text>

  
  <rect x="80" y="272" width="1440" height="120" rx="14" fill="#1a2e1a" stroke="#4ade80" stroke-width="2"/>
  <text x="120" y="302" font-family="Arial,sans-serif" font-size="16" font-weight="700" fill="#86efac">API LAYER</text>
  <text x="300" y="302" font-family="Arial,sans-serif" font-size="12" fill="#4ade80">FastAPI  |  Pydantic v2  |  JWT Auth  |  CORS  |  Rate Limiting</text>

  <rect x="110" y="316" width="155" height="55" rx="6" fill="#1e293b" stroke="#4ade80"/><text x="187" y="340" text-anchor="middle" font-family="Arial,sans-serif" font-size="12" fill="#86efac">auth/</text><text x="187" y="358" text-anchor="middle" font-family="Arial,sans-serif" font-size="10" fill="#94a3b8">magic link, JWT</text>
  <rect x="280" y="316" width="155" height="55" rx="6" fill="#1e293b" stroke="#4ade80"/><text x="357" y="340" text-anchor="middle" font-family="Arial,sans-serif" font-size="12" fill="#86efac">users/</text><text x="357" y="358" text-anchor="middle" font-family="Arial,sans-serif" font-size="10" fill="#94a3b8">profile CRUD</text>
  <rect x="450" y="316" width="155" height="55" rx="6" fill="#1e293b" stroke="#4ade80"/><text x="527" y="340" text-anchor="middle" font-family="Arial,sans-serif" font-size="12" fill="#86efac">trips/</text><text x="527" y="358" text-anchor="middle" font-family="Arial,sans-serif" font-size="10" fill="#94a3b8">CRUD + state</text>
  <rect x="620" y="316" width="155" height="55" rx="6" fill="#1e293b" stroke="#4ade80"/><text x="697" y="340" text-anchor="middle" font-family="Arial,sans-serif" font-size="12" fill="#86efac">itinerary/</text><text x="697" y="358" text-anchor="middle" font-family="Arial,sans-serif" font-size="10" fill="#94a3b8">generate + adapt</text>
  <rect x="790" y="316" width="155" height="55" rx="6" fill="#1e293b" stroke="#4ade80"/><text x="867" y="340" text-anchor="middle" font-family="Arial,sans-serif" font-size="12" fill="#86efac">conversations/</text><text x="867" y="358" text-anchor="middle" font-family="Arial,sans-serif" font-size="10" fill="#94a3b8">WS + history</text>
  <rect x="960" y="316" width="155" height="55" rx="6" fill="#1e293b" stroke="#4ade80"/><text x="1037" y="340" text-anchor="middle" font-family="Arial,sans-serif" font-size="12" fill="#86efac">conditions/</text><text x="1037" y="358" text-anchor="middle" font-family="Arial,sans-serif" font-size="10" fill="#94a3b8">fetch + score</text>
  <rect x="1130" y="316" width="155" height="55" rx="6" fill="#1e293b" stroke="#4ade80"/><text x="1207" y="340" text-anchor="middle" font-family="Arial,sans-serif" font-size="12" fill="#86efac">briefings/</text><text x="1207" y="358" text-anchor="middle" font-family="Arial,sans-serif" font-size="10" fill="#94a3b8">get + generate</text>
  <rect x="1300" y="316" width="155" height="55" rx="6" fill="#1e293b" stroke="#4ade80"/><text x="1377" y="340" text-anchor="middle" font-family="Arial,sans-serif" font-size="12" fill="#86efac">swaps/</text><text x="1377" y="358" text-anchor="middle" font-family="Arial,sans-serif" font-size="10" fill="#94a3b8">suggest + respond</text>

  
  <line x1="400" y1="392" x2="400" y2="425" stroke="#4ade80" stroke-width="2" marker-end="url(#ag)"/>
  <line x1="800" y1="392" x2="800" y2="425" stroke="#4ade80" stroke-width="2" marker-end="url(#ag)"/>
  <line x1="1200" y1="392" x2="1200" y2="425" stroke="#4ade80" stroke-width="2" marker-end="url(#ag)"/>

  
  <rect x="80" y="430" width="1440" height="215" rx="14" fill="#2d1f3d" stroke="#a78bfa" stroke-width="2"/>
  <text x="120" y="460" font-family="Arial,sans-serif" font-size="16" font-weight="700" fill="#c4b5fd">SERVICE LAYER</text>
  <text x="340" y="460" font-family="Arial,sans-serif" font-size="12" fill="#a78bfa">Python  |  Modular Monolith  |  Dependency Injection</text>

  
  <rect x="110" y="478" width="220" height="65" rx="8" fill="#1e293b" stroke="#7c3aed"/><text x="220" y="502" text-anchor="middle" font-family="Arial,sans-serif" font-size="13" font-weight="600" fill="#c4b5fd">AI Agent Service</text><text x="220" y="520" text-anchor="middle" font-family="Arial,sans-serif" font-size="10" fill="#94a3b8">LangChain + Gemini + Prompts</text>
  <rect x="350" y="478" width="220" height="65" rx="8" fill="#1e293b" stroke="#7c3aed"/><text x="460" y="502" text-anchor="middle" font-family="Arial,sans-serif" font-size="13" font-weight="600" fill="#c4b5fd">Condition Service</text><text x="460" y="520" text-anchor="middle" font-family="Arial,sans-serif" font-size="10" fill="#94a3b8">Normalize + Score + Alert</text>
  <rect x="590" y="478" width="220" height="65" rx="8" fill="#1e293b" stroke="#7c3aed"/><text x="700" y="502" text-anchor="middle" font-family="Arial,sans-serif" font-size="13" font-weight="600" fill="#c4b5fd">Itinerary Service</text><text x="700" y="520" text-anchor="middle" font-family="Arial,sans-serif" font-size="10" fill="#94a3b8">Generate + Optimize + Swap</text>
  <rect x="830" y="478" width="220" height="65" rx="8" fill="#1e293b" stroke="#7c3aed"/><text x="940" y="502" text-anchor="middle" font-family="Arial,sans-serif" font-size="13" font-weight="600" fill="#c4b5fd">Knowledge Service</text><text x="940" y="520" text-anchor="middle" font-family="Arial,sans-serif" font-size="10" fill="#94a3b8">RAG + Embeddings + Tips</text>
  <rect x="1070" y="478" width="220" height="65" rx="8" fill="#1e293b" stroke="#7c3aed"/><text x="1180" y="502" text-anchor="middle" font-family="Arial,sans-serif" font-size="13" font-weight="600" fill="#c4b5fd">External Data Service</text><text x="1180" y="520" text-anchor="middle" font-family="Arial,sans-serif" font-size="10" fill="#94a3b8">Adapters + Cache + Fallback</text>
  <rect x="1310" y="478" width="180" height="65" rx="8" fill="#1e293b" stroke="#7c3aed"/><text x="1400" y="502" text-anchor="middle" font-family="Arial,sans-serif" font-size="13" font-weight="600" fill="#c4b5fd">Notification Svc</text><text x="1400" y="520" text-anchor="middle" font-family="Arial,sans-serif" font-size="10" fill="#94a3b8">Schedule + Push + Content</text>

  
  <rect x="110" y="558" width="180" height="65" rx="8" fill="#1e293b" stroke="#475569"/><text x="200" y="582" text-anchor="middle" font-family="Arial,sans-serif" font-size="13" font-weight="600" fill="#94a3b8">Auth Middleware</text><text x="200" y="600" text-anchor="middle" font-family="Arial,sans-serif" font-size="10" fill="#64748b">JWT validation</text>
  <rect x="310" y="558" width="180" height="65" rx="8" fill="#1e293b" stroke="#475569"/><text x="400" y="582" text-anchor="middle" font-family="Arial,sans-serif" font-size="13" font-weight="600" fill="#94a3b8">Error Handling</text><text x="400" y="600" text-anchor="middle" font-family="Arial,sans-serif" font-size="10" fill="#64748b">Structured responses</text>
  <rect x="510" y="558" width="180" height="65" rx="8" fill="#1e293b" stroke="#475569"/><text x="600" y="582" text-anchor="middle" font-family="Arial,sans-serif" font-size="13" font-weight="600" fill="#94a3b8">Rate Limiter</text><text x="600" y="600" text-anchor="middle" font-family="Arial,sans-serif" font-size="10" fill="#64748b">Redis sliding window</text>
  <rect x="710" y="558" width="180" height="65" rx="8" fill="#1e293b" stroke="#475569"/><text x="800" y="582" text-anchor="middle" font-family="Arial,sans-serif" font-size="13" font-weight="600" fill="#94a3b8">Circuit Breaker</text><text x="800" y="600" text-anchor="middle" font-family="Arial,sans-serif" font-size="10" fill="#64748b">Per-provider state</text>
  <rect x="910" y="558" width="180" height="65" rx="8" fill="#1e293b" stroke="#475569"/><text x="1000" y="582" text-anchor="middle" font-family="Arial,sans-serif" font-size="13" font-weight="600" fill="#94a3b8">Logging</text><text x="1000" y="600" text-anchor="middle" font-family="Arial,sans-serif" font-size="10" fill="#64748b">Structured JSON</text>
  <rect x="1110" y="558" width="180" height="65" rx="8" fill="#1e293b" stroke="#475569"/><text x="1200" y="582" text-anchor="middle" font-family="Arial,sans-serif" font-size="13" font-weight="600" fill="#94a3b8">Metrics</text><text x="1200" y="600" text-anchor="middle" font-family="Arial,sans-serif" font-size="10" fill="#64748b">Response time, errors</text>
  <rect x="1310" y="558" width="180" height="65" rx="8" fill="#1e293b" stroke="#475569"/><text x="1400" y="582" text-anchor="middle" font-family="Arial,sans-serif" font-size="13" font-weight="600" fill="#94a3b8">Validators</text><text x="1400" y="600" text-anchor="middle" font-family="Arial,sans-serif" font-size="10" fill="#64748b">Pydantic v2 schemas</text>

  
  <line x1="400" y1="645" x2="400" y2="685" stroke="#a78bfa" stroke-width="2" marker-end="url(#ap)"/>
  <line x1="800" y1="645" x2="800" y2="685" stroke="#a78bfa" stroke-width="2" marker-end="url(#ap)"/>
  <line x1="1200" y1="645" x2="1200" y2="685" stroke="#a78bfa" stroke-width="2" marker-end="url(#ap)"/>

  
  <rect x="80" y="690" width="1440" height="80" rx="14" fill="#1f2415" stroke="#fbbf24" stroke-width="2"/>
  <text x="120" y="720" font-family="Arial,sans-serif" font-size="16" font-weight="700" fill="#fde68a">DATA ACCESS LAYER</text>
  <text x="410" y="720" font-family="Arial,sans-serif" font-size="12" fill="#fbbf24">SQLAlchemy 2.0 ORM  |  Alembic Migrations  |  Repository Pattern</text>
  <rect x="110" y="735" width="200" height="24" rx="4" fill="#1e293b" stroke="#475569"/><text x="210" y="752" text-anchor="middle" font-family="Arial,sans-serif" font-size="11" fill="#94a3b8">AsyncSession + connection pool</text>
  <rect x="330" y="735" width="200" height="24" rx="4" fill="#1e293b" stroke="#475569"/><text x="430" y="752" text-anchor="middle" font-family="Arial,sans-serif" font-size="11" fill="#94a3b8">GeoAlchemy2 (PostGIS)</text>
  <rect x="550" y="735" width="200" height="24" rx="4" fill="#1e293b" stroke="#475569"/><text x="650" y="752" text-anchor="middle" font-family="Arial,sans-serif" font-size="11" fill="#94a3b8">JSONB field patterns</text>

  
  <line x1="400" y1="770" x2="400" y2="810" stroke="#fbbf24" stroke-width="2" marker-end="url(#ay)"/>
  <line x1="800" y1="770" x2="800" y2="810" stroke="#fbbf24" stroke-width="2" marker-end="url(#ay)"/>
  <line x1="1200" y1="770" x2="1200" y2="810" stroke="#fbbf24" stroke-width="2" marker-end="url(#ay)"/>

  
  <rect x="80" y="815" width="1440" height="150" rx="14" fill="#111827" stroke="#f59e0b" stroke-width="2"/>
  <text x="120" y="845" font-family="Arial,sans-serif" font-size="16" font-weight="700" fill="#fde68a">DATA STORES</text>

  
  <rect x="130" y="860" width="240" height="85" rx="12" fill="#1e293b" stroke="#f59e0b"/><text x="250" y="893" text-anchor="middle" font-family="Arial,sans-serif" font-size="15" font-weight="700" fill="#fde68a">PostgreSQL 16</text><text x="250" y="914" text-anchor="middle" font-family="Arial,sans-serif" font-size="11" fill="#94a3b8">PostGIS  |  JSONB</text><text x="250" y="930" text-anchor="middle" font-family="Arial,sans-serif" font-size="11" fill="#94a3b8">Primary data store</text>
  <rect x="400" y="860" width="240" height="85" rx="12" fill="#1e293b" stroke="#f59e0b"/><text x="520" y="893" text-anchor="middle" font-family="Arial,sans-serif" font-size="15" font-weight="700" fill="#fde68a">Redis 7</text><text x="520" y="914" text-anchor="middle" font-family="Arial,sans-serif" font-size="11" fill="#94a3b8">Cache + Sessions + Broker</text><text x="520" y="930" text-anchor="middle" font-family="Arial,sans-serif" font-size="11" fill="#94a3b8">Rate limits + Pub/Sub</text>
  <rect x="670" y="860" width="240" height="85" rx="12" fill="#1e293b" stroke="#f59e0b"/><text x="790" y="893" text-anchor="middle" font-family="Arial,sans-serif" font-size="15" font-weight="700" fill="#fde68a">Vector Store</text><text x="790" y="914" text-anchor="middle" font-family="Arial,sans-serif" font-size="11" fill="#94a3b8">Chroma (MVP)</text><text x="790" y="930" text-anchor="middle" font-family="Arial,sans-serif" font-size="11" fill="#94a3b8">Pinecone (production)</text>
  <rect x="940" y="860" width="240" height="85" rx="12" fill="#1e293b" stroke="#f59e0b"/><text x="1060" y="893" text-anchor="middle" font-family="Arial,sans-serif" font-size="15" font-weight="700" fill="#fde68a">Celery + Redis</text><text x="1060" y="914" text-anchor="middle" font-family="Arial,sans-serif" font-size="11" fill="#94a3b8">Task queue workers</text><text x="1060" y="930" text-anchor="middle" font-family="Arial,sans-serif" font-size="11" fill="#94a3b8">Scheduled beats</text>
  <rect x="1210" y="860" width="280" height="85" rx="12" fill="#1e293b" stroke="#f59e0b"/><text x="1350" y="893" text-anchor="middle" font-family="Arial,sans-serif" font-size="15" font-weight="700" fill="#fde68a">File / Static</text><text x="1350" y="914" text-anchor="middle" font-family="Arial,sans-serif" font-size="11" fill="#94a3b8">S3-compatible (images)</text><text x="1350" y="930" text-anchor="middle" font-family="Arial,sans-serif" font-size="11" fill="#94a3b8">CDN for static assets</text>

  
  <rect x="80" y="990" width="1440" height="80" rx="14" fill="#1c1917" stroke="#78716c" stroke-width="2"/>
  <text x="120" y="1020" font-family="Arial,sans-serif" font-size="16" font-weight="700" fill="#d6d3d1">DEPLOYMENT</text>
  <rect x="300" y="1005" width="180" height="48" rx="8" fill="#292524" stroke="#78716c"/><text x="390" y="1035" text-anchor="middle" font-family="Arial,sans-serif" font-size="13" fill="#d6d3d1">Docker Compose</text>
  <rect x="510" y="1005" width="180" height="48" rx="8" fill="#292524" stroke="#78716c"/><text x="600" y="1035" text-anchor="middle" font-family="Arial,sans-serif" font-size="13" fill="#d6d3d1">Railway (MVP)</text>
  <rect x="720" y="1005" width="180" height="48" rx="8" fill="#292524" stroke="#78716c"/><text x="810" y="1035" text-anchor="middle" font-family="Arial,sans-serif" font-size="13" fill="#d6d3d1">GitHub CI/CD</text>
  <rect x="930" y="1005" width="180" height="48" rx="8" fill="#292524" stroke="#78716c"/><text x="1020" y="1035" text-anchor="middle" font-family="Arial,sans-serif" font-size="13" fill="#d6d3d1">Vercel (Frontend)</text>
  <rect x="1140" y="1005" width="180" height="48" rx="8" fill="#292524" stroke="#78716c"/><text x="1230" y="1035" text-anchor="middle" font-family="Arial,sans-serif" font-size="13" fill="#d6d3d1">CloudFlare CDN</text>

  
  <rect x="80" y="1090" width="1440" height="80" rx="14" fill="#111827" stroke="#475569"/>
  <text x="120" y="1120" font-family="Arial,sans-serif" font-size="14" font-weight="700" fill="#e2e8f0">Performance Targets:</text>
  <rect x="320" y="1105" width="170" height="40" rx="6" fill="#166534"/><text x="405" y="1130" text-anchor="middle" font-family="Arial,sans-serif" font-size="12" fill="#fff">API: &amp;lt;200ms p95</text>
  <rect x="510" y="1105" width="170" height="40" rx="6" fill="#166534"/><text x="595" y="1130" text-anchor="middle" font-family="Arial,sans-serif" font-size="12" fill="#fff">WS first token: &amp;lt;1s</text>
  <rect x="700" y="1105" width="170" height="40" rx="6" fill="#166534"/><text x="785" y="1130" text-anchor="middle" font-family="Arial,sans-serif" font-size="12" fill="#fff">Chat full: &amp;lt;8s</text>
  <rect x="890" y="1105" width="190" height="40" rx="6" fill="#166534"/><text x="985" y="1130" text-anchor="middle" font-family="Arial,sans-serif" font-size="12" fill="#fff">Itinerary gen: &amp;lt;30s</text>
  <rect x="1100" y="1105" width="170" height="40" rx="6" fill="#166534"/><text x="1185" y="1130" text-anchor="middle" font-family="Arial,sans-serif" font-size="12" fill="#fff">DB queries: &amp;lt;50ms</text>
  <rect x="1290" y="1105" width="170" height="40" rx="6" fill="#166534"/><text x="1375" y="1130" text-anchor="middle" font-family="Arial,sans-serif" font-size="12" fill="#fff">Uptime: 99.5%</text>
</svg>
