<svg xmlns="http://www.w3.org/2000/svg" width="1600" height="1200" viewBox="0 0 1600 1200">
  <defs>
    <marker id="a" viewBox="0 0 10 10" refX="9" refY="5" markerWidth="7" markerHeight="7" orient="auto"><path d="M0 0L10 5L0 10z" fill="#64748b"/></marker>
  </defs>
  <rect width="1600" height="1200" rx="12" fill="#0f172a"/>
  <text x="800" y="48" text-anchor="middle" font-family="Arial,sans-serif" font-size="28" font-weight="700" fill="#e2e8f0">08  -  NZ Pilot: Activity-Condition Matrix + Weather Patterns</text>

  
  <rect x="40" y="80" width="520" height="520" rx="14" fill="#111827" stroke="#4ade80" stroke-width="2"/>
  <text x="300" y="110" text-anchor="middle" font-family="Arial,sans-serif" font-size="18" font-weight="700" fill="#86efac">NZ Weather Pattern Flow</text>

  
  <rect x="70" y="125" width="460" height="450" rx="10" fill="#0c1420"/>
  <text x="300" y="155" text-anchor="middle" font-family="Arial,sans-serif" font-size="14" fill="#64748b">Predominant W -&gt; E weather flow</text>

  
  <line x1="90" y1="300" x2="200" y2="300" stroke="#60a5fa" stroke-width="4" marker-end="url(#a)"/>
  <text x="145" y="290" text-anchor="middle" font-family="Arial,sans-serif" font-size="11" fill="#60a5fa">Fronts from</text>
  <text x="145" y="320" text-anchor="middle" font-family="Arial,sans-serif" font-size="11" fill="#60a5fa">Tasman Sea</text>

  
  <ellipse cx="340" cy="220" rx="80" ry="100" fill="#1e293b" stroke="#86efac" stroke-width="1.5"/>
  <text x="340" y="195" text-anchor="middle" font-family="Arial,sans-serif" font-size="14" font-weight="700" fill="#86efac">North Is.</text>
  <text x="340" y="215" text-anchor="middle" font-family="Arial,sans-serif" font-size="10" fill="#94a3b8">Subtropical north</text>
  <text x="340" y="233" text-anchor="middle" font-family="Arial,sans-serif" font-size="10" fill="#94a3b8">Volcanic plateau</text>
  <text x="340" y="251" text-anchor="middle" font-family="Arial,sans-serif" font-size="10" fill="#94a3b8">Geothermal belt</text>
  <text x="340" y="269" text-anchor="middle" font-family="Arial,sans-serif" font-size="10" fill="#94a3b8">UV: extreme</text>

  
  <ellipse cx="320" cy="430" rx="90" ry="120" fill="#1e293b" stroke="#86efac" stroke-width="1.5"/>
  <text x="320" y="390" text-anchor="middle" font-family="Arial,sans-serif" font-size="14" font-weight="700" fill="#86efac">South Is.</text>
  <text x="320" y="410" text-anchor="middle" font-family="Arial,sans-serif" font-size="10" fill="#94a3b8">Alpine spine 3000m+</text>
  <text x="320" y="428" text-anchor="middle" font-family="Arial,sans-serif" font-size="10" fill="#94a3b8">West: 5-8m rain/yr</text>
  <text x="320" y="446" text-anchor="middle" font-family="Arial,sans-serif" font-size="10" fill="#94a3b8">East: 600mm rain/yr</text>
  <text x="320" y="464" text-anchor="middle" font-family="Arial,sans-serif" font-size="10" fill="#94a3b8">Fjords + glaciers</text>
  <text x="320" y="482" text-anchor="middle" font-family="Arial,sans-serif" font-size="10" fill="#94a3b8">Dark sky reserves</text>

  
  <text x="145" y="400" text-anchor="middle" font-family="Arial,sans-serif" font-size="10" fill="#fbbf24">Roaring 40s</text>
  <text x="145" y="420" text-anchor="middle" font-family="Arial,sans-serif" font-size="10" fill="#fbbf24">prevailing</text>
  <text x="145" y="440" text-anchor="middle" font-family="Arial,sans-serif" font-size="10" fill="#fbbf24">westerlies</text>
  <line x1="90" y1="420" x2="220" y2="420" stroke="#fbbf24" stroke-width="3" marker-end="url(#a)"/>

  
  <rect x="430" y="370" width="80" height="60" rx="6" fill="#422006" stroke="#f59e0b"/>
  <text x="470" y="393" text-anchor="middle" font-family="Arial,sans-serif" font-size="10" font-weight="600" fill="#fde68a">Rain</text>
  <text x="470" y="408" text-anchor="middle" font-family="Arial,sans-serif" font-size="10" font-weight="600" fill="#fde68a">Shadow</text>
  <text x="470" y="423" text-anchor="middle" font-family="Arial,sans-serif" font-size="10" fill="#94a3b8">East coast</text>

  
  <rect x="590" y="80" width="970" height="520" rx="14" fill="#111827" stroke="#f59e0b" stroke-width="2"/>
  <text x="1075" y="110" text-anchor="middle" font-family="Arial,sans-serif" font-size="18" font-weight="700" fill="#fde68a">Activity-Condition Threshold Matrix</text>

  
  <text x="805" y="140" text-anchor="middle" font-family="Arial,sans-serif" font-size="11" font-weight="700" fill="#94a3b8">Wind</text>
  <text x="890" y="140" text-anchor="middle" font-family="Arial,sans-serif" font-size="11" font-weight="700" fill="#94a3b8">Rain</text>
  <text x="975" y="140" text-anchor="middle" font-family="Arial,sans-serif" font-size="11" font-weight="700" fill="#94a3b8">Temp</text>
  <text x="1060" y="140" text-anchor="middle" font-family="Arial,sans-serif" font-size="11" font-weight="700" fill="#94a3b8">Vis.</text>
  <text x="1145" y="140" text-anchor="middle" font-family="Arial,sans-serif" font-size="11" font-weight="700" fill="#94a3b8">Tide</text>
  <text x="1230" y="140" text-anchor="middle" font-family="Arial,sans-serif" font-size="11" font-weight="700" fill="#94a3b8">UV</text>
  <text x="1340" y="140" text-anchor="middle" font-family="Arial,sans-serif" font-size="11" font-weight="700" fill="#94a3b8">Special</text>
  <line x1="610" y1="150" x2="1540" y2="150" stroke="#334155"/>

  
  <text x="700" y="175" text-anchor="middle" font-family="Arial,sans-serif" font-size="12" font-weight="600" fill="#e2e8f0">Alpine Hiking</text>
  <rect x="770" y="160" width="70" height="24" rx="4" fill="#7f1d1d"/><text x="805" y="177" text-anchor="middle" font-family="monospace" font-size="10" fill="#fca5a5">&amp;lt;40km/h</text>
  <rect x="855" y="160" width="70" height="24" rx="4" fill="#92400e"/><text x="890" y="177" text-anchor="middle" font-family="monospace" font-size="10" fill="#fde68a">&amp;lt;5mm/h</text>
  <rect x="940" y="160" width="70" height="24" rx="4" fill="#166534"/><text x="975" y="177" text-anchor="middle" font-family="monospace" font-size="10" fill="#86efac">0-25-&gt;C</text>
  <rect x="1025" y="160" width="70" height="24" rx="4" fill="#7f1d1d"/><text x="1060" y="177" text-anchor="middle" font-family="monospace" font-size="10" fill="#fca5a5">&amp;gt;2km</text>
  <rect x="1110" y="160" width="70" height="24" rx="4" fill="#1e293b"/><text x="1145" y="177" text-anchor="middle" font-family="monospace" font-size="10" fill="#64748b">N/A</text>
  <rect x="1195" y="160" width="70" height="24" rx="4" fill="#92400e"/><text x="1230" y="177" text-anchor="middle" font-family="monospace" font-size="10" fill="#fde68a">SPF 50+</text>
  <text x="1340" y="177" font-family="Arial,sans-serif" font-size="10" fill="#94a3b8">Snow/ice check</text>

  
  <text x="700" y="210" text-anchor="middle" font-family="Arial,sans-serif" font-size="12" font-weight="600" fill="#e2e8f0">Kayaking</text>
  <rect x="770" y="195" width="70" height="24" rx="4" fill="#7f1d1d"/><text x="805" y="212" text-anchor="middle" font-family="monospace" font-size="10" fill="#fca5a5">&amp;lt;25km/h</text>
  <rect x="855" y="195" width="70" height="24" rx="4" fill="#166534"/><text x="890" y="212" text-anchor="middle" font-family="monospace" font-size="10" fill="#86efac">&amp;lt;2mm/h</text>
  <rect x="940" y="195" width="70" height="24" rx="4" fill="#166534"/><text x="975" y="212" text-anchor="middle" font-family="monospace" font-size="10" fill="#86efac">10-28-&gt;C</text>
  <rect x="1025" y="195" width="70" height="24" rx="4" fill="#166534"/><text x="1060" y="212" text-anchor="middle" font-family="monospace" font-size="10" fill="#86efac">&amp;gt;5km</text>
  <rect x="1110" y="195" width="70" height="24" rx="4" fill="#92400e"/><text x="1145" y="212" text-anchor="middle" font-family="monospace" font-size="10" fill="#fde68a">slack</text>
  <rect x="1195" y="195" width="70" height="24" rx="4" fill="#92400e"/><text x="1230" y="212" text-anchor="middle" font-family="monospace" font-size="10" fill="#fde68a">SPF 50+</text>
  <text x="1340" y="212" font-family="Arial,sans-serif" font-size="10" fill="#94a3b8">Sea state</text>

  
  <text x="700" y="245" text-anchor="middle" font-family="Arial,sans-serif" font-size="12" font-weight="600" fill="#e2e8f0">Whale Watch</text>
  <rect x="770" y="230" width="70" height="24" rx="4" fill="#7f1d1d"/><text x="805" y="247" text-anchor="middle" font-family="monospace" font-size="10" fill="#fca5a5">&amp;lt;30km/h</text>
  <rect x="855" y="230" width="70" height="24" rx="4" fill="#166534"/><text x="890" y="247" text-anchor="middle" font-family="monospace" font-size="10" fill="#86efac">any</text>
  <rect x="940" y="230" width="70" height="24" rx="4" fill="#166534"/><text x="975" y="247" text-anchor="middle" font-family="monospace" font-size="10" fill="#86efac">any</text>
  <rect x="1025" y="230" width="70" height="24" rx="4" fill="#92400e"/><text x="1060" y="247" text-anchor="middle" font-family="monospace" font-size="10" fill="#fde68a">&amp;gt;5km</text>
  <rect x="1110" y="230" width="70" height="24" rx="4" fill="#1e293b"/><text x="1145" y="247" text-anchor="middle" font-family="monospace" font-size="10" fill="#64748b">N/A</text>
  <rect x="1195" y="230" width="70" height="24" rx="4" fill="#1e293b"/><text x="1230" y="247" text-anchor="middle" font-family="monospace" font-size="10" fill="#64748b">N/A</text>
  <text x="1340" y="247" font-family="Arial,sans-serif" font-size="10" fill="#94a3b8">Swell height</text>

  
  <text x="700" y="280" text-anchor="middle" font-family="Arial,sans-serif" font-size="12" font-weight="600" fill="#e2e8f0">Stargazing</text>
  <rect x="770" y="265" width="70" height="24" rx="4" fill="#166534"/><text x="805" y="282" text-anchor="middle" font-family="monospace" font-size="10" fill="#86efac">any</text>
  <rect x="855" y="265" width="70" height="24" rx="4" fill="#7f1d1d"/><text x="890" y="282" text-anchor="middle" font-family="monospace" font-size="10" fill="#fca5a5">none</text>
  <rect x="940" y="265" width="70" height="24" rx="4" fill="#166534"/><text x="975" y="282" text-anchor="middle" font-family="monospace" font-size="10" fill="#86efac">any</text>
  <rect x="1025" y="265" width="70" height="24" rx="4" fill="#7f1d1d"/><text x="1060" y="282" text-anchor="middle" font-family="monospace" font-size="10" fill="#fca5a5">&amp;gt;10km</text>
  <rect x="1110" y="265" width="70" height="24" rx="4" fill="#1e293b"/><text x="1145" y="282" text-anchor="middle" font-family="monospace" font-size="10" fill="#64748b">N/A</text>
  <rect x="1195" y="265" width="70" height="24" rx="4" fill="#1e293b"/><text x="1230" y="282" text-anchor="middle" font-family="monospace" font-size="10" fill="#64748b">N/A</text>
  <text x="1340" y="282" font-family="Arial,sans-serif" font-size="10" fill="#94a3b8">Cloud &amp;lt;20%, Kp, moon</text>

  
  <text x="700" y="315" text-anchor="middle" font-family="Arial,sans-serif" font-size="12" font-weight="600" fill="#e2e8f0">Glacier Heli</text>
  <rect x="770" y="300" width="70" height="24" rx="4" fill="#7f1d1d"/><text x="805" y="317" text-anchor="middle" font-family="monospace" font-size="10" fill="#fca5a5">&amp;lt;30km/h</text>
  <rect x="855" y="300" width="70" height="24" rx="4" fill="#7f1d1d"/><text x="890" y="317" text-anchor="middle" font-family="monospace" font-size="10" fill="#fca5a5">&amp;lt;1mm/h</text>
  <rect x="940" y="300" width="70" height="24" rx="4" fill="#166534"/><text x="975" y="317" text-anchor="middle" font-family="monospace" font-size="10" fill="#86efac">any</text>
  <rect x="1025" y="300" width="70" height="24" rx="4" fill="#7f1d1d"/><text x="1060" y="317" text-anchor="middle" font-family="monospace" font-size="10" fill="#fca5a5">&amp;gt;5km</text>
  <rect x="1110" y="300" width="70" height="24" rx="4" fill="#1e293b"/><text x="1145" y="317" text-anchor="middle" font-family="monospace" font-size="10" fill="#64748b">N/A</text>
  <rect x="1195" y="300" width="70" height="24" rx="4" fill="#92400e"/><text x="1230" y="317" text-anchor="middle" font-family="monospace" font-size="10" fill="#fde68a">SPF 50+</text>
  <text x="1340" y="317" font-family="Arial,sans-serif" font-size="10" fill="#94a3b8">Cloud ceiling</text>

  
  <text x="700" y="350" text-anchor="middle" font-family="Arial,sans-serif" font-size="12" font-weight="600" fill="#e2e8f0">Milford Sound</text>
  <rect x="770" y="335" width="70" height="24" rx="4" fill="#166534"/><text x="805" y="352" text-anchor="middle" font-family="monospace" font-size="10" fill="#86efac">any</text>
  <rect x="855" y="335" width="70" height="24" rx="4" fill="#166534"/><text x="890" y="352" text-anchor="middle" font-family="monospace" font-size="10" fill="#86efac">rain=good!</text>
  <rect x="940" y="335" width="70" height="24" rx="4" fill="#166534"/><text x="975" y="352" text-anchor="middle" font-family="monospace" font-size="10" fill="#86efac">any</text>
  <rect x="1025" y="335" width="70" height="24" rx="4" fill="#166534"/><text x="1060" y="352" text-anchor="middle" font-family="monospace" font-size="10" fill="#86efac">any</text>
  <rect x="1110" y="335" width="70" height="24" rx="4" fill="#1e293b"/><text x="1145" y="352" text-anchor="middle" font-family="monospace" font-size="10" fill="#64748b">N/A</text>
  <rect x="1195" y="335" width="70" height="24" rx="4" fill="#1e293b"/><text x="1230" y="352" text-anchor="middle" font-family="monospace" font-size="10" fill="#64748b">N/A</text>
  <text x="1340" y="352" font-family="Arial,sans-serif" font-size="10" fill="#4ade80">Rain = waterfalls!</text>

  
  <text x="700" y="385" text-anchor="middle" font-family="Arial,sans-serif" font-size="12" font-weight="600" fill="#e2e8f0">Tongariro</text>
  <rect x="770" y="370" width="70" height="24" rx="4" fill="#7f1d1d"/><text x="805" y="387" text-anchor="middle" font-family="monospace" font-size="10" fill="#fca5a5">&amp;lt;50km/h</text>
  <rect x="855" y="370" width="70" height="24" rx="4" fill="#7f1d1d"/><text x="890" y="387" text-anchor="middle" font-family="monospace" font-size="10" fill="#fca5a5">&amp;lt;3mm/h</text>
  <rect x="940" y="370" width="70" height="24" rx="4" fill="#92400e"/><text x="975" y="387" text-anchor="middle" font-family="monospace" font-size="10" fill="#fde68a">&amp;gt;0-&gt;C</text>
  <rect x="1025" y="370" width="70" height="24" rx="4" fill="#7f1d1d"/><text x="1060" y="387" text-anchor="middle" font-family="monospace" font-size="10" fill="#fca5a5">&amp;gt;3km</text>
  <rect x="1110" y="370" width="70" height="24" rx="4" fill="#1e293b"/><text x="1145" y="387" text-anchor="middle" font-family="monospace" font-size="10" fill="#64748b">N/A</text>
  <rect x="1195" y="370" width="70" height="24" rx="4" fill="#92400e"/><text x="1230" y="387" text-anchor="middle" font-family="monospace" font-size="10" fill="#fde68a">SPF 50+</text>
  <text x="1340" y="387" font-family="Arial,sans-serif" font-size="10" fill="#f87171">Volcanic alert lv.</text>

  
  <text x="700" y="420" text-anchor="middle" font-family="Arial,sans-serif" font-size="12" font-weight="600" fill="#e2e8f0">Beach / Surf</text>
  <rect x="770" y="405" width="70" height="24" rx="4" fill="#166534"/><text x="805" y="422" text-anchor="middle" font-family="monospace" font-size="10" fill="#86efac">&amp;lt;40km/h</text>
  <rect x="855" y="405" width="70" height="24" rx="4" fill="#166534"/><text x="890" y="422" text-anchor="middle" font-family="monospace" font-size="10" fill="#86efac">&amp;lt;1mm/h</text>
  <rect x="940" y="405" width="70" height="24" rx="4" fill="#166534"/><text x="975" y="422" text-anchor="middle" font-family="monospace" font-size="10" fill="#86efac">&amp;gt;18-&gt;C</text>
  <rect x="1025" y="405" width="70" height="24" rx="4" fill="#166534"/><text x="1060" y="422" text-anchor="middle" font-family="monospace" font-size="10" fill="#86efac">any</text>
  <rect x="1110" y="405" width="70" height="24" rx="4" fill="#92400e"/><text x="1145" y="422" text-anchor="middle" font-family="monospace" font-size="10" fill="#fde68a">varies</text>
  <rect x="1195" y="405" width="70" height="24" rx="4" fill="#7f1d1d"/><text x="1230" y="422" text-anchor="middle" font-family="monospace" font-size="10" fill="#fca5a5">UV 8+!</text>
  <text x="1340" y="422" font-family="Arial,sans-serif" font-size="10" fill="#94a3b8">Rip currents</text>

  
  <text x="700" y="455" text-anchor="middle" font-family="Arial,sans-serif" font-size="12" font-weight="600" fill="#e2e8f0">Photography</text>
  <rect x="770" y="440" width="70" height="24" rx="4" fill="#166534"/><text x="805" y="457" text-anchor="middle" font-family="monospace" font-size="10" fill="#86efac">any</text>
  <rect x="855" y="440" width="70" height="24" rx="4" fill="#166534"/><text x="890" y="457" text-anchor="middle" font-family="monospace" font-size="10" fill="#86efac">any</text>
  <rect x="940" y="440" width="70" height="24" rx="4" fill="#166534"/><text x="975" y="457" text-anchor="middle" font-family="monospace" font-size="10" fill="#86efac">any</text>
  <rect x="1025" y="440" width="70" height="24" rx="4" fill="#92400e"/><text x="1060" y="457" text-anchor="middle" font-family="monospace" font-size="10" fill="#fde68a">&amp;gt;2km</text>
  <rect x="1110" y="440" width="70" height="24" rx="4" fill="#1e293b"/><text x="1145" y="457" text-anchor="middle" font-family="monospace" font-size="10" fill="#64748b">N/A</text>
  <rect x="1195" y="440" width="70" height="24" rx="4" fill="#1e293b"/><text x="1230" y="457" text-anchor="middle" font-family="monospace" font-size="10" fill="#64748b">N/A</text>
  <text x="1340" y="457" font-family="Arial,sans-serif" font-size="10" fill="#fbbf24">Golden hour timing</text>

  
  <rect x="620" y="490" width="16" height="16" rx="3" fill="#166534"/><text x="645" y="503" font-family="Arial,sans-serif" font-size="11" fill="#86efac">Low concern</text>
  <rect x="770" y="490" width="16" height="16" rx="3" fill="#92400e"/><text x="795" y="503" font-family="Arial,sans-serif" font-size="11" fill="#fde68a">Moderate concern</text>
  <rect x="940" y="490" width="16" height="16" rx="3" fill="#7f1d1d"/><text x="965" y="503" font-family="Arial,sans-serif" font-size="11" fill="#fca5a5">Critical threshold</text>
  <rect x="1130" y="490" width="16" height="16" rx="3" fill="#1e293b"/><text x="1155" y="503" font-family="Arial,sans-serif" font-size="11" fill="#64748b">Not applicable</text>

  
  <rect x="40" y="630" width="1520" height="180" rx="14" fill="#1e293b" stroke="#3b82f6" stroke-width="2"/>
  <text x="800" y="662" text-anchor="middle" font-family="Arial,sans-serif" font-size="18" font-weight="700" fill="#93c5fd">NZ-Specific Data Sources</text>

  <rect x="70" y="680" width="220" height="105" rx="8" fill="#111827" stroke="#3b82f6"/>
  <text x="180" y="705" text-anchor="middle" font-family="Arial,sans-serif" font-size="13" font-weight="700" fill="#93c5fd">MetService NZ</text>
  <text x="180" y="725" text-anchor="middle" font-family="Arial,sans-serif" font-size="10" fill="#94a3b8">Mountain forecasts</text>
  <text x="180" y="741" text-anchor="middle" font-family="Arial,sans-serif" font-size="10" fill="#94a3b8">Marine forecasts</text>
  <text x="180" y="757" text-anchor="middle" font-family="Arial,sans-serif" font-size="10" fill="#94a3b8">Severe weather warnings</text>
  <text x="180" y="773" text-anchor="middle" font-family="Arial,sans-serif" font-size="10" fill="#94a3b8">UV index data</text>

  <rect x="310" y="680" width="220" height="105" rx="8" fill="#111827" stroke="#4ade80"/>
  <text x="420" y="705" text-anchor="middle" font-family="Arial,sans-serif" font-size="13" font-weight="700" fill="#86efac">DOC (Conservation)</text>
  <text x="420" y="725" text-anchor="middle" font-family="Arial,sans-serif" font-size="10" fill="#94a3b8">Track conditions</text>
  <text x="420" y="741" text-anchor="middle" font-family="Arial,sans-serif" font-size="10" fill="#94a3b8">Hut availability</text>
  <text x="420" y="757" text-anchor="middle" font-family="Arial,sans-serif" font-size="10" fill="#94a3b8">Conservation alerts</text>
  <text x="420" y="773" text-anchor="middle" font-family="Arial,sans-serif" font-size="10" fill="#94a3b8">Campsite status</text>

  <rect x="550" y="680" width="220" height="105" rx="8" fill="#111827" stroke="#f59e0b"/>
  <text x="660" y="705" text-anchor="middle" font-family="Arial,sans-serif" font-size="13" font-weight="700" fill="#fde68a">NIWA</text>
  <text x="660" y="725" text-anchor="middle" font-family="Arial,sans-serif" font-size="10" fill="#94a3b8">Tide predictions</text>
  <text x="660" y="741" text-anchor="middle" font-family="Arial,sans-serif" font-size="10" fill="#94a3b8">River flow data</text>
  <text x="660" y="757" text-anchor="middle" font-family="Arial,sans-serif" font-size="10" fill="#94a3b8">UV forecasts</text>
  <text x="660" y="773" text-anchor="middle" font-family="Arial,sans-serif" font-size="10" fill="#94a3b8">Climate summaries</text>

  <rect x="790" y="680" width="220" height="105" rx="8" fill="#111827" stroke="#ef4444"/>
  <text x="900" y="705" text-anchor="middle" font-family="Arial,sans-serif" font-size="13" font-weight="700" fill="#fca5a5">GeoNet</text>
  <text x="900" y="725" text-anchor="middle" font-family="Arial,sans-serif" font-size="10" fill="#94a3b8">Volcanic alert levels</text>
  <text x="900" y="741" text-anchor="middle" font-family="Arial,sans-serif" font-size="10" fill="#94a3b8">Earthquake activity</text>
  <text x="900" y="757" text-anchor="middle" font-family="Arial,sans-serif" font-size="10" fill="#94a3b8">Tsunami warnings</text>
  <text x="900" y="773" text-anchor="middle" font-family="Arial,sans-serif" font-size="10" fill="#94a3b8">Safety-critical</text>

  <rect x="1030" y="680" width="220" height="105" rx="8" fill="#111827" stroke="#a78bfa"/>
  <text x="1140" y="705" text-anchor="middle" font-family="Arial,sans-serif" font-size="13" font-weight="700" fill="#c4b5fd">LINZ</text>
  <text x="1140" y="725" text-anchor="middle" font-family="Arial,sans-serif" font-size="10" fill="#94a3b8">Topographic data</text>
  <text x="1140" y="741" text-anchor="middle" font-family="Arial,sans-serif" font-size="10" fill="#94a3b8">Coordinate services</text>
  <text x="1140" y="757" text-anchor="middle" font-family="Arial,sans-serif" font-size="10" fill="#94a3b8">Basemaps</text>
  <text x="1140" y="773" text-anchor="middle" font-family="Arial,sans-serif" font-size="10" fill="#94a3b8">Elevation data</text>

  <rect x="1270" y="680" width="260" height="105" rx="8" fill="#111827" stroke="#06b6d4"/>
  <text x="1400" y="705" text-anchor="middle" font-family="Arial,sans-serif" font-size="13" font-weight="700" fill="#67e8f9">Waka Kotahi / NZTA</text>
  <text x="1400" y="725" text-anchor="middle" font-family="Arial,sans-serif" font-size="10" fill="#94a3b8">Road conditions</text>
  <text x="1400" y="741" text-anchor="middle" font-family="Arial,sans-serif" font-size="10" fill="#94a3b8">Highway closures</text>
  <text x="1400" y="757" text-anchor="middle" font-family="Arial,sans-serif" font-size="10" fill="#94a3b8">Chain requirements</text>
  <text x="1400" y="773" text-anchor="middle" font-family="Arial,sans-serif" font-size="10" fill="#94a3b8">Journey planner data</text>

  
  <rect x="40" y="840" width="1520" height="150" rx="14" fill="#1e293b" stroke="#fbbf24" stroke-width="2"/>
  <text x="800" y="870" text-anchor="middle" font-family="Arial,sans-serif" font-size="18" font-weight="700" fill="#fde68a">Seasonal Activity Calendar</text>

  
  <text x="200" y="897" font-family="Arial,sans-serif" font-size="10" fill="#64748b">Activity</text>
  <text x="310" y="897" text-anchor="middle" font-family="Arial,sans-serif" font-size="10" fill="#94a3b8">J</text>
  <text x="350" y="897" text-anchor="middle" font-family="Arial,sans-serif" font-size="10" fill="#94a3b8">F</text>
  <text x="390" y="897" text-anchor="middle" font-family="Arial,sans-serif" font-size="10" fill="#94a3b8">M</text>
  <text x="430" y="897" text-anchor="middle" font-family="Arial,sans-serif" font-size="10" fill="#94a3b8">A</text>
  <text x="470" y="897" text-anchor="middle" font-family="Arial,sans-serif" font-size="10" fill="#94a3b8">M</text>
  <text x="510" y="897" text-anchor="middle" font-family="Arial,sans-serif" font-size="10" fill="#94a3b8">J</text>
  <text x="550" y="897" text-anchor="middle" font-family="Arial,sans-serif" font-size="10" fill="#94a3b8">J</text>
  <text x="590" y="897" text-anchor="middle" font-family="Arial,sans-serif" font-size="10" fill="#94a3b8">A</text>
  <text x="630" y="897" text-anchor="middle" font-family="Arial,sans-serif" font-size="10" fill="#94a3b8">S</text>
  <text x="670" y="897" text-anchor="middle" font-family="Arial,sans-serif" font-size="10" fill="#94a3b8">O</text>
  <text x="710" y="897" text-anchor="middle" font-family="Arial,sans-serif" font-size="10" fill="#94a3b8">N</text>
  <text x="750" y="897" text-anchor="middle" font-family="Arial,sans-serif" font-size="10" fill="#94a3b8">D</text>

  
  <text x="200" y="920" font-family="Arial,sans-serif" font-size="11" fill="#e2e8f0">Great Walks</text>
  <rect x="670" y="908" width="100" height="18" rx="3" fill="#166534"/><rect x="290" y="908" width="80" height="18" rx="3" fill="#166534"/>
  <rect x="390" y="908" width="260" height="18" rx="3" fill="#92400e"/>

  
  <text x="200" y="942" font-family="Arial,sans-serif" font-size="11" fill="#e2e8f0">Whale Watch</text>
  <rect x="290" y="930" width="480" height="18" rx="3" fill="#166534"/>

  
  <text x="200" y="964" font-family="Arial,sans-serif" font-size="11" fill="#e2e8f0">Skiing</text>
  <rect x="510" y="952" width="160" height="18" rx="3" fill="#166534"/>

  
  <text x="200" y="978" font-family="Arial,sans-serif" font-size="11" fill="#e2e8f0">Aurora (South)</text>
  <rect x="390" y="974" width="200" height="12" rx="3" fill="#166534"/>
  <text x="870" y="920" font-family="Arial,sans-serif" font-size="11" fill="#86efac">= Peak season</text>
  <text x="870" y="942" font-family="Arial,sans-serif" font-size="11" fill="#fde68a">= Shoulder / restricted</text>

  
  <rect x="40" y="1010" width="1520" height="160" rx="14" fill="#111827" stroke="#475569"/>
  <text x="800" y="1042" text-anchor="middle" font-family="Arial,sans-serif" font-size="18" font-weight="700" fill="#e2e8f0">Pilot Scope + Success Criteria</text>

  <rect x="80" y="1060" width="440" height="90" rx="8" fill="#1e293b" stroke="#4ade80"/>
  <text x="300" y="1085" text-anchor="middle" font-family="Arial,sans-serif" font-size="13" font-weight="700" fill="#86efac">Pilot Scope</text>
  <text x="300" y="1108" text-anchor="middle" font-family="Arial,sans-serif" font-size="11" fill="#94a3b8">NZ North + South Island only</text>
  <text x="300" y="1126" text-anchor="middle" font-family="Arial,sans-serif" font-size="11" fill="#94a3b8">7-21 day self-drive road trips</text>
  <text x="300" y="1144" text-anchor="middle" font-family="Arial,sans-serif" font-size="11" fill="#94a3b8">50-100 curated attractions in knowledge base</text>

  <rect x="560" y="1060" width="480" height="90" rx="8" fill="#1e293b" stroke="#f59e0b"/>
  <text x="800" y="1085" text-anchor="middle" font-family="Arial,sans-serif" font-size="13" font-weight="700" fill="#fde68a">Success Metrics</text>
  <text x="800" y="1108" text-anchor="middle" font-family="Arial,sans-serif" font-size="11" fill="#94a3b8">Itinerary generation &amp;lt;30s  |  Briefing accuracy &amp;gt;85%</text>
  <text x="800" y="1126" text-anchor="middle" font-family="Arial,sans-serif" font-size="11" fill="#94a3b8">Swap acceptance rate &amp;gt;50%  |  NPS &amp;gt;40</text>
  <text x="800" y="1144" text-anchor="middle" font-family="Arial,sans-serif" font-size="11" fill="#94a3b8">Users complete trip with app &amp;gt;70%</text>

  <rect x="1080" y="1060" width="440" height="90" rx="8" fill="#1e293b" stroke="#a78bfa"/>
  <text x="1300" y="1085" text-anchor="middle" font-family="Arial,sans-serif" font-size="13" font-weight="700" fill="#c4b5fd">Generalization Path</text>
  <text x="1300" y="1108" text-anchor="middle" font-family="Arial,sans-serif" font-size="11" fill="#94a3b8">NZ patterns -&gt; template for weather-sensitive</text>
  <text x="1300" y="1126" text-anchor="middle" font-family="Arial,sans-serif" font-size="11" fill="#94a3b8">destinations (Iceland, Patagonia, Scotland)</text>
  <text x="1300" y="1144" text-anchor="middle" font-family="Arial,sans-serif" font-size="11" fill="#94a3b8">Adapt condition matrix per destination</text>
</svg>
